<?xml version="1.0" encoding="UTF-8"?> <svg xmlns="http://www.w3.org/2000/svg" viewBox="0 0 279.4 101.08"><defs><style>.cls-1{fill:#15afc0;}.cls-2{fill:#1c3461;}</style></defs><g id="Layer_2" data-name="Layer 2"><g id="Layer_1-2" data-name="Layer 1"><path class="cls-1" d="M152.29,74.85c-3.34-.24-6.68-.37-10-.46-1.67,0-3.33-.06-5-.1l-5,0-5,0c-1.67,0-3.34,0-5,.1-3.34.08-6.68.21-10,.46,3.33.24,6.67.37,10,.46,1.67,0,3.34.06,5,.1l5,0,5,0c1.67,0,3.33,0,5-.09C145.61,75.22,149,75.09,152.29,74.85Z"></path><path class="cls-1" d="M262.06,69.42c-3.28-.25-6.56-.38-9.84-.46-1.64-.06-3.28-.07-4.92-.1l-4.92,0-4.92,0c-1.64,0-3.28,0-4.92.1-3.28.08-6.56.21-9.84.46,3.28.24,6.56.37,9.84.46,1.64.05,3.28.06,4.92.09l4.92,0,4.92,0c1.64,0,3.28,0,4.92-.1C255.5,69.79,258.78,69.66,262.06,69.42Z"></path><path class="cls-1" d="M197.57,71c-3.34-.25-6.68-.38-10-.46-1.66-.06-3.33-.07-5-.1l-5,0-5,0c-1.67,0-3.34,0-5,.09-3.33.09-6.68.22-10,.47,3.33.24,6.68.37,10,.45,1.67.06,3.34.07,5,.1l5,0,5,0c1.67,0,3.34,0,5-.1C190.89,71.33,194.23,71.2,197.57,71Z"></path><path class="cls-1" d="M279.13,63.72c-4.52-.25-9-.38-13.55-.46-2.26-.06-4.52-.07-6.78-.1l-6.78,0-6.78,0c-2.26,0-4.52,0-6.78.1-4.51.08-9,.21-13.55.46,4.52.24,9,.37,13.55.45,2.26.06,4.52.07,6.78.1l6.78,0,6.78,0c2.26,0,4.52,0,6.78-.1C270.09,64.09,274.61,64,279.13,63.72Z"></path><path class="cls-1" d="M257.26,75.42c-5.37-.24-10.75-.37-16.12-.46-2.69,0-5.38-.06-8.06-.09l-8.06,0-8.06,0c-2.69,0-5.37,0-8.06.09-5.37.09-10.74.22-16.12.46,5.38.25,10.75.38,16.12.46,2.69.06,5.37.07,8.06.1L225,76l8.06,0c2.68,0,5.37,0,8.06-.1C246.51,75.8,251.89,75.67,257.26,75.42Z"></path><path class="cls-1" d="M11.74,48.76v2.66h-8V57.7h8v2.66h-8v6.27h8v2.68H1.22V48.76Z"></path><path class="cls-1" d="M17.3,59.61v9.7H14.77V48.76H17.3v6.47l4.61-6.47H25.1l-6,8.45,7.46,12.1H23.51l-6-9.92Z"></path><path class="cls-1" d="M29.05,69.29H28l7.11-20.53h2.29l7.19,20.55H29.05Zm11.88-2.66-4.7-13.41L31.57,66.63Z"></path><path class="cls-1" d="M62,51.57a10.9,10.9,0,0,1,0,14.87,9.63,9.63,0,0,1-14.12,0,10.9,10.9,0,0,1,0-14.87,9.63,9.63,0,0,1,14.12,0ZM55,51.17a7,7,0,0,0-5.26,2.3,8.13,8.13,0,0,0,0,11.08,7.16,7.16,0,0,0,10.52,0,8.13,8.13,0,0,0,0-11.08A7,7,0,0,0,55,51.17Z"></path><path class="cls-1" d="M65.73,48.76H80.15v2.67h-11l6,7.62-6,7.58h11v2.68H65.73V66.66l6.13-7.61L65.73,51.4Z"></path><path class="cls-1" d="M92.79,48.76v2.66h-8V57.7h8v2.66h-8v6.27h8v2.68H82.28V48.76Z"></path><path class="cls-1" d="M98.37,48.76V69.31H95.83V48.76Z"></path><path class="cls-1" d="M100.41,48.76h14.42v2.67h-11l6,7.62-6,7.58h11v2.68H100.41V66.66l6.13-7.61-6.13-7.65Z"></path><path class="cls-2" d="M6.75,92.62,0,80.32H2.9L8,89.62l5.11-9.3H16L9.27,92.62v8.25H6.75Z"></path><path class="cls-2" d="M14.87,100.85H13.79L20.9,80.32h2.29l7.19,20.55H14.87Zm11.89-2.66L22.05,84.78,17.39,98.19Z"></path><path class="cls-2" d="M34.87,94.29v6.58H32.34V80.32h5.54a6.62,6.62,0,0,1,4,2,7.26,7.26,0,0,1,0,9.88,6.23,6.23,0,0,1-4.69,2.05Zm0-11.3v8.63h2.3a3.86,3.86,0,0,0,2.89-1.26,4.31,4.31,0,0,0,1.2-3.07,4.24,4.24,0,0,0-1.2-3A3.86,3.86,0,0,0,37.17,83Z"></path><path class="cls-2" d="M62.92,83.13a10.9,10.9,0,0,1,0,14.87,9.64,9.64,0,0,1-14.13,0,10.9,10.9,0,0,1,0-14.87,9.64,9.64,0,0,1,14.13,0Zm-7.07-.4A7,7,0,0,0,50.59,85a8.12,8.12,0,0,0,0,11.08,7.16,7.16,0,0,0,10.52,0,8.13,8.13,0,0,0,0-11.08A7,7,0,0,0,55.85,82.73Z"></path><path class="cls-2" d="M71.06,83v17.88H68.52V80.32H81.3v20.55H78.76V83Z"></path><path class="cls-2" d="M92.4,80.32l7.18,20.55H96.9L91.25,84.78l-5.57,16.07H83L90.1,80.32Z"></path><path class="cls-2" d="M109.42,80.32l7.1,20.55h-2.68l-2.51-7.27h-5.18l-2.5,7.27H101l7.1-20.55Zm1,10.62-1.67-4.82-1.66,4.82Z"></path><path class="cls-2" d="M118.79,80.32h2.3l8,14.66V80.32h2.54v20.55h-2.21L121.31,86v14.85h-2.52Z"></path><path class="cls-2" d="M151.67,83.13a10.9,10.9,0,0,1,0,14.87,9.64,9.64,0,0,1-14.13,0,10.9,10.9,0,0,1,0-14.87,9.64,9.64,0,0,1,14.13,0Zm-7.06-.4a7,7,0,0,0-5.27,2.3,8.12,8.12,0,0,0,0,11.08,7.16,7.16,0,0,0,10.52,0,8.13,8.13,0,0,0,0-11.08A7,7,0,0,0,144.61,82.73Z"></path><path class="cls-2" d="M139.19,41l11.18-.84q3.63-.21,7.26-.47l2.6-.19h0c-1.27,2.22-4.63,3.43-4.63,3.43l-15.83.63C134.23,43.4,139.19,41,139.19,41Z"></path><path class="cls-2" d="M205.7,10.16,188,11.79c-28.19,2.62-71.41,4.61-78.69,4.95a5.85,5.85,0,0,0-2.22.55,65.46,65.46,0,0,0-9.63,6l-.29.1c7.19-7.36,11.88-7.79,11.88-7.79C193,12.18,270,2.34,277.77,1.33a1.74,1.74,0,0,1,1.55.57.76.76,0,0,0,.08.11C270.51,3.05,217.84,9.19,205.7,10.16Z"></path><path class="cls-2" d="M208.85,1.89h-.06a16.07,16.07,0,0,0-6,1.48A10.86,10.86,0,0,1,210.25,0a13.93,13.93,0,0,1,13.62,9.33,24.42,24.42,0,0,0-4.82-4.44,10.55,10.55,0,0,1,2.88,4.5A19.43,19.43,0,0,0,218,5.81a8.24,8.24,0,0,1,2.46,3.76,15.61,15.61,0,0,0-2.65-2.5,5,5,0,0,1,.95,2.3,10.55,10.55,0,0,0-8.4-4.21,11.85,11.85,0,0,0-3.82,1,9.47,9.47,0,0,1,2.9-1.73,11.75,11.75,0,0,0-4.11,1.13A10.06,10.06,0,0,1,209,3.24a14.15,14.15,0,0,0-4.65,1.26A11.16,11.16,0,0,1,208.85,1.89Z"></path><path class="cls-2" d="M213.65,29.39a7.21,7.21,0,0,0,1-.43l-.27.35-.7.08Z"></path><path class="cls-2" d="M154.22,63.75l-1.09.8,1.12.51s.85,4.77,2.46.76l3.48.48,17.24-2,.45,1.52a159.25,159.25,0,0,0,14.58-6.65v.06l-1.09.8,1.11.51s.86,4.77,2.46.75l3.48.5,17.25-2,.45,1.52s14.3-5.57,21.66-10.94l1.36.36s7.51-8.42,3.21-8.15a2.4,2.4,0,0,0-.16-.62,4.59,4.59,0,0,0-2.59.54,12.29,12.29,0,0,0-2,1.92A42.24,42.24,0,0,1,229,50.18c-3,1.71-6.17,3.29-9.36,4.7-2.7,1.2-5.59,2.66-8.61,2.62,6.47-1.88,12.39-5.31,18.11-8.79a39.87,39.87,0,0,0,8.23-5.93,5.66,5.66,0,0,1,3.16-2,3.57,3.57,0,0,1,.88,0c-.95-.94-2.89-1.7-6.8-.66l-8.82,3.49L210.62,33.4a17.91,17.91,0,0,0,2-2l-.23,0A14.18,14.18,0,0,1,198.09,23a24.88,24.88,0,0,0,5.18,4.11A10.79,10.79,0,0,1,200,22.77a19.64,19.64,0,0,0,4.22,3.32,8.4,8.4,0,0,1-2.78-3.59,16.83,16.83,0,0,0,2.85,2.32,5.15,5.15,0,0,1-1.15-2.24c2.4,2.44,5.26,3.93,8.71,3.64A11.48,11.48,0,0,0,215.57,25a8.87,8.87,0,0,1-2.73,1.92,11.22,11.22,0,0,0,4-1.4,9.55,9.55,0,0,1-3.46,2.52,11.46,11.46,0,0,0,3.54-1.11L232,14.61c13.8-2.12,27.18-4.54,35.4-6.9a14.18,14.18,0,0,1,6-.41,4.62,4.62,0,0,1,1.22.31s5.83-4.37,3.49-4.25l-72,8.83c.09.47,5.47.31,7.76.45,1.91.11,7.13.49,5.38,3.84,3.65-.52,4.84-.75,8.6-1.32L217.3,23.75a26.9,26.9,0,0,0,1.18-7.52c0-.63.09-1-.42-1.4a4.35,4.35,0,0,0-1.53-.57,22.25,22.25,0,0,0-3.83-.56c-.26,0,.17.18.6.35A3.63,3.63,0,0,1,215,15.23a1.65,1.65,0,0,1,.13,1.66,4.52,4.52,0,0,1-1.28,1.6,3.83,3.83,0,0,1-2,1h0l-.3,0,.3,0a2.7,2.7,0,0,1-2.19-.71,3.61,3.61,0,0,1-.95-2.15,2.53,2.53,0,0,1,.6-2.06,6.12,6.12,0,0,1,1.92-1c-1.63-.08-3.25-.09-4.87-.19h0s-.07,0-.13.05l-2.15.37-3.18.54-2,.32a17.48,17.48,0,0,0-2.68.67l-.43.24a10.89,10.89,0,0,0-1.73,1.52c-.59.57-1.18,1.13-1.79,1.67-.42.38-.84.76-1.28,1.11a6.83,6.83,0,0,1-1.28.86l-.24-.11c-.45-1.43-.92-2.86-1.37-4.29-.15-.47-.31-.94-.46-1.42l-.15-.47h0L110,17.8a5.66,5.66,0,0,0-2.68.55L101.46,22s27,2.05,52.8,1.31l1.63,15.23c.79-.06,1.59-.08,2.38-.17a5.4,5.4,0,0,1,3.16.34.71.71,0,0,1,.3,1c-.52,1-2,2.85-6.09,3.66a3.82,3.82,0,0,0,2.61,2.91s7.92-1.08,19.61-3.52l-7.6,12.57c-4.52,2-8.37,4.09-13.88,6.76,0,0,.18-3.83-1.53-2.84A32.41,32.41,0,0,0,154.22,63.75Zm26.15-21.61c1.7-.36,8-1.75,9.12-2l-3.81,8.58c-3.32,1.36-12.33,5.15-12.33,5.15ZM167.65,22.7,174,26.27l-4.35,3.84-3.38,1.1c-1.54.57-2.75-.34-3.14-1.94L161.61,23C164.25,22.88,165.12,22.91,167.65,22.7Zm9.45-1.32A3.78,3.78,0,0,1,175.54,24l-3.63-1.77C173.72,22.09,176.82,21.41,177.1,21.38Zm4.51,4.47s-.19.09-.25.11l-.36.14-.7.27-2.1-1a4.85,4.85,0,0,1,.33-2.63,7.21,7.21,0,0,1,.71-1.31c.13-.2.27-.4.41-.59a2.43,2.43,0,0,1,.4-.45.44.44,0,0,1,.57.07,1,1,0,0,1,.17.54c0,.2.07.4.11.6.17.93.33,1.85.48,2.77,0,.29.09.57.13.85l.06.39C181.58,25.63,181.64,25.79,181.61,25.85ZM188,22.11c-.09.37-.44.52-.74.69l-2,1.14-.81.43a1.73,1.73,0,0,1-.85.36s-.43,0-.54-.31-.11-.31-.15-.46-.09-.37-.13-.56l-.24-1c-.09-.42-.19-.85-.28-1.27s-.2-.82-.26-1.24a.87.87,0,0,1,.47-.87l1.06-.67,1.72-1.07a1.33,1.33,0,0,1,.47-.21.83.83,0,0,1,.88.44c.08.16,1,2.77,1.3,3.59A1.92,1.92,0,0,1,188,22.11Zm12.34,22.06a12,12,0,0,0-4,.47s-2.94,1-8.31,3.22l3.71-8.34,1.82-.47Zm2.95,8.1a12.59,12.59,0,0,0,2.07-3.74l.64-.08,3.07,2.32-2.38,1.08ZM172.81,62c6.24-2.12,11.86-5.43,17.4-9A54.34,54.34,0,0,0,198.63,47c1.09-1,1.83-2.15,3.42-2.45l1.25-.22-7.54-5.71c4.51-1.18,8.07-2.3,12.24-3.71a2.33,2.33,0,0,0,.36-.13l.95-.2L224,44.32l-3.18,1.33L217.55,47c-2,.86-6.81,3-6.84,3l-5.85-4.43a6.35,6.35,0,0,0-3.63.73c-1,.67-1.66,1.78-2.57,2.54a58.5,58.5,0,0,1-8.32,5.6q-4.44,2.58-9.1,4.79C178.62,60.54,175.78,62,172.81,62Z"></path></g></g></svg> 