<svg id="Layer_1" data-name="Layer 1" xmlns="http://www.w3.org/2000/svg" viewBox="0 0 326.21 110.1"><defs><style>.cls-1{fill:#231f20;}</style></defs><title>logo</title><path class="cls-1" d="M78.57,85.41a2.58,2.58,0,0,1-1.72.58,3.58,3.58,0,0,1-1.34-.23,2.37,2.37,0,0,1-.91-.62,2.56,2.56,0,0,1-.53-.9,4.15,4.15,0,0,1-.21-1.08,3.06,3.06,0,0,1,.27-1.58,1.69,1.69,0,0,1,1-.87q-1.16-.43-1.12-2.16a2.28,2.28,0,0,1,.21-.95,2.53,2.53,0,0,1,.58-.81,2.89,2.89,0,0,1,.87-.57A2.72,2.72,0,0,1,76.74,76a2.55,2.55,0,0,1,1.76.58,4.89,4.89,0,0,1,1.1,1.48l-.66.41-.64.41c-.34-.89-.82-1.33-1.43-1.33a1.06,1.06,0,0,0-.87.36,1.13,1.13,0,0,0-.31.73,1.51,1.51,0,0,0,.33,1.1,1.31,1.31,0,0,0,1,.33h.88v1.38H77a1.61,1.61,0,0,0-1,.32A1.45,1.45,0,0,0,75.6,83a1.64,1.64,0,0,0,.34,1.08,1.16,1.16,0,0,0,1,.42,1.28,1.28,0,0,0,.74-.28,2.57,2.57,0,0,0,.73-1.11l1.33.7A4.21,4.21,0,0,1,78.57,85.41Z"/><path class="cls-1" d="M85.15,85.8l-1.57-4.71-1,1.47V85.8H80.87V76.23H82.6v3.58L85,76.23h1.92l-2.08,3.11,2.14,6.46Z"/><path class="cls-1" d="M93.4,84.75A2.71,2.71,0,0,1,91,86a2.77,2.77,0,0,1-1.36-.32,2.91,2.91,0,0,1-1-.94A4.46,4.46,0,0,1,88,83.28a7.89,7.89,0,0,1-.21-1.86,6.55,6.55,0,0,1,.49-2.65,2.94,2.94,0,0,1,1.55-1.6,2.53,2.53,0,0,1-.81-.87,2.48,2.48,0,0,1-.27-1.19,2.3,2.3,0,0,1,.76-1.79,2.82,2.82,0,0,1,2-.68,3.88,3.88,0,0,1,2,.49l-.25,1.43a2.76,2.76,0,0,0-.75-.31,3.34,3.34,0,0,0-.79-.1,1.5,1.5,0,0,0-.84.27.8.8,0,0,0-.33.72.94.94,0,0,0,.25.63,3.87,3.87,0,0,0,.6.58c.23.19.48.37.73.54a5.77,5.77,0,0,1,.63.48A5.28,5.28,0,0,1,93.83,79a6,6,0,0,1,.42,2.45A5.88,5.88,0,0,1,93.4,84.75Zm-3.8-3.37A5.36,5.36,0,0,0,90,83.62a1.2,1.2,0,0,0,1.12.79,1.16,1.16,0,0,0,1.08-.81,5.71,5.71,0,0,0,.35-2.19,7,7,0,0,0-.06-.82,4.66,4.66,0,0,0-.22-1,2.39,2.39,0,0,0-.46-.8.94.94,0,0,0-.74-.34Q89.6,78.48,89.6,81.38Z"/><path class="cls-1" d="M95.81,79a5,5,0,0,1,.62-1.57,3,3,0,0,1,1-1A2.66,2.66,0,0,1,98.82,76a2.62,2.62,0,0,1,2.35,1.33A7,7,0,0,1,102,81a6.86,6.86,0,0,1-.83,3.68A2.67,2.67,0,0,1,98.78,86a2.62,2.62,0,0,1-2.35-1.32A6.88,6.88,0,0,1,95.6,81,9.68,9.68,0,0,1,95.81,79Zm4.08-.53a1.19,1.19,0,0,0-1.11-.8,1.16,1.16,0,0,0-1.09.81A6.83,6.83,0,0,0,97.33,81a6.28,6.28,0,0,0,.39,2.58,1.22,1.22,0,0,0,1.1.81,1.18,1.18,0,0,0,1.09-.86,6.79,6.79,0,0,0,.36-2.52A6.49,6.49,0,0,0,99.89,78.43Zm-.82-3.59H97.82l1.35-2.69h2Z"/><path class="cls-1" d="M109,77.74a2.4,2.4,0,0,1,.74,1.42,10.71,10.71,0,0,1,.17,1.91,6.55,6.55,0,0,1-.85,3.68A2.71,2.71,0,0,1,106.64,86a2.67,2.67,0,0,1-2.36-1.26,6.6,6.6,0,0,1-.83-3.64,6.47,6.47,0,0,1,.83-3.62,2.66,2.66,0,0,1,2.34-1.25h3.92v1.51Zm-1.2.84a1.2,1.2,0,0,0-2.21,0,5.87,5.87,0,0,0-.38,2.5,6.21,6.21,0,0,0,.39,2.59,1.21,1.21,0,0,0,1.11.78,1.18,1.18,0,0,0,1.1-.81,6.42,6.42,0,0,0,.38-2.54A6,6,0,0,0,107.77,78.58Z"/><path class="cls-1" d="M116.32,85.41a2.6,2.6,0,0,1-1.72.58,3.57,3.57,0,0,1-1.35-.23,2.4,2.4,0,0,1-.91-.62,2.68,2.68,0,0,1-.53-.9,4.17,4.17,0,0,1-.21-1.08,3,3,0,0,1,.27-1.58,1.67,1.67,0,0,1,1-.87c-.77-.28-1.15-1-1.11-2.16a2.23,2.23,0,0,1,.2-.95,2.46,2.46,0,0,1,.58-.81,2.83,2.83,0,0,1,.87-.57,2.7,2.7,0,0,1,1.11-.22,2.56,2.56,0,0,1,1.77.58,4.91,4.91,0,0,1,1.1,1.48l-.66.41-.64.41q-.51-1.33-1.43-1.33a1.09,1.09,0,0,0-.88.36,1.16,1.16,0,0,0-.3.73,1.52,1.52,0,0,0,.33,1.1,1.3,1.3,0,0,0,1,.33h.88v1.38h-.82a1.64,1.64,0,0,0-1.05.32,1.46,1.46,0,0,0-.4,1.19,1.67,1.67,0,0,0,.34,1.08,1.19,1.19,0,0,0,1,.42,1.26,1.26,0,0,0,.74-.28,2.53,2.53,0,0,0,.73-1.11l1.33.7A4.24,4.24,0,0,1,116.32,85.41Z"/><path class="cls-1" d="M118.8,85.8V76.23h1.72V85.8Z"/><path class="cls-1" d="M127.4,84.49a2.31,2.31,0,0,1-.68.83,3.1,3.1,0,0,1-1,.5,4.79,4.79,0,0,1-1.28.17,6.82,6.82,0,0,1-1.37-.13,3,3,0,0,1-1.08-.43l.53-1.53a4.34,4.34,0,0,0,1,.49,2.63,2.63,0,0,0,.76.18,2.18,2.18,0,0,0,1.28-.32,1,1,0,0,0,.45-.8,1.34,1.34,0,0,0-.35-.92,5.92,5.92,0,0,0-1.18-.92c-.39-.25-.73-.49-1-.71a4.81,4.81,0,0,1-.7-.68,2.15,2.15,0,0,1-.41-.75,3,3,0,0,1-.13-.91,2.47,2.47,0,0,1,.73-1.83,2.68,2.68,0,0,1,2-.72,3.22,3.22,0,0,1,1.43.29,4.54,4.54,0,0,1,1.06.69l-.53,1.51a3.22,3.22,0,0,0-1.07-.79,2.42,2.42,0,0,0-.87-.19,1.1,1.1,0,0,0-.74.26.86.86,0,0,0-.3.69,1.28,1.28,0,0,0,.33.84,4.5,4.5,0,0,0,1.1.86,9.55,9.55,0,0,1,.92.63,4.66,4.66,0,0,1,.75.72,2.91,2.91,0,0,1,.51.84,2.57,2.57,0,0,1,.19,1A2.63,2.63,0,0,1,127.4,84.49Z"/><path class="cls-1" d="M246.22,53.85a32,32,0,0,0-1.83-6.53,40.12,40.12,0,0,0-1.79-4.43,1.06,1.06,0,0,0,.13-.6,1.24,1.24,0,0,0-.51-.87,6.71,6.71,0,0,0-3.86-1.8h-.14a4.59,4.59,0,0,0-3.13,1.27c-1.31,1.23-2.24,3.25-2.76,6a48.34,48.34,0,0,0-.78,10.68c.23,4.81,1.33,8.34,3.3,10.5a5.13,5.13,0,0,0,3.81,1.79,5.52,5.52,0,0,0,3.45-1.36,10.83,10.83,0,0,0,2.2-2.7,10.11,10.11,0,0,0,1.24-3A31.6,31.6,0,0,0,246.22,53.85Zm-8.09-11.72v-.49h0l.07.5a2.91,2.91,0,0,1,1,.28.71.71,0,0,0,.16.23c.45.52,1.25,1.88,2.52,5.46a33.93,33.93,0,0,1,1.67,6,30.6,30.6,0,0,1-.65,8.29,7.25,7.25,0,0,1-.92,2.28,6.63,6.63,0,0,1-1.69,2c-1.22,1.05-2.29,1-3.37-.21-1.58-1.71-2.48-4.71-2.69-8.9a45.65,45.65,0,0,1,.75-10.2,8.47,8.47,0,0,1,2-4.62A1.64,1.64,0,0,1,238.13,42.13Z"/><path class="cls-1" d="M228.92,50.79c-.28-3.86-.42-6.58-.43-8.1l.09-.18a.91.91,0,0,0-.25-.89,1.29,1.29,0,0,0-.83-.4c-1.23-.14-2.53-.22-3.85-.25s-3.06,0-5.1,0l-3.72.06a1.72,1.72,0,0,0-.81.17l-1.43.14a1.27,1.27,0,0,0-.81.38.92.92,0,0,0-.28.9l.09.19c0,1.56-.16,4.29-.43,8.11a72.75,72.75,0,0,0-.27,8.65c0,.92.19,2.45.49,4.65a43.09,43.09,0,0,1,.32,4.49,1,1,0,0,0,.47.81,1.53,1.53,0,0,0,.85.24,1.51,1.51,0,0,0,.85-.25,1.28,1.28,0,0,0,.62-.9,42.94,42.94,0,0,0-.35-4.65c-.25-2.29-.37-3.58-.4-4.46a71.28,71.28,0,0,1,.16-8.5c.26-3.78.33-6.25.34-7.59.88-.07,1.85-.11,3-.14s2.71,0,4.43,0l3.63.05a2.52,2.52,0,0,0,.42,0h.18c0,1.14,0,3.65.29,7.61a74,74,0,0,1,.25,8.4c0,1-.22,2.69-.47,4.6a44.4,44.4,0,0,0-.32,4.67,1,1,0,0,0,.48.84,1.72,1.72,0,0,0,1,.21,1.49,1.49,0,0,0,.86-.25.94.94,0,0,0,.47-.8,42.87,42.87,0,0,1,.32-4.49c.3-2.3.45-3.78.49-4.65A71.3,71.3,0,0,0,228.92,50.79Z"/><path class="cls-1" d="M259.61,38.65A15.58,15.58,0,0,0,256.45,33a13.65,13.65,0,0,0-5.38-3.79,1.72,1.72,0,0,0-.6-.12,1.22,1.22,0,0,0-1.14.79,1.23,1.23,0,0,0-.08,1,1.29,1.29,0,0,0,.79.7,11.34,11.34,0,0,1,4.38,3.08A12.13,12.13,0,0,1,257,39.37c.07.21.13.42.18.63a6.22,6.22,0,0,0-3.12.75,6,6,0,0,0-2.71,2.73c-.94,1.94-1.65,6.1-2.17,12.74a78.71,78.71,0,0,0-.21,13,1.32,1.32,0,0,0,.48.82,1.21,1.21,0,0,0,.79.27h.21a1.48,1.48,0,0,0,.87-.43,1.14,1.14,0,0,0,.3-1,76.36,76.36,0,0,1,.23-12.45c.46-6.2,1.12-10.18,2-11.86a3.34,3.34,0,0,1,1.69-1.63,3.7,3.7,0,0,1,2-.35c.05,1.54.05,2.67,0,3.43s-.17,2.2-.35,3.92-.3,3.07-.33,3.92a118.53,118.53,0,0,0,0,14.38,1.09,1.09,0,0,0,.48.91,1.36,1.36,0,0,0,1.85-.13,1.32,1.32,0,0,0,.34-.92,112.26,112.26,0,0,1,0-14.09c0-.79.14-2,.32-3.72s.3-3.12.35-4,0-2.21,0-3.87l.13-.2a1.2,1.2,0,0,0-.28-1.35A18.25,18.25,0,0,0,259.61,38.65Z"/><path class="cls-1" d="M238.9,34.24a1,1,0,0,0-.31,0c-.86,0-1.35,1.05-1.66,1.85a2.73,2.73,0,0,0-.24,2.09,1,1,0,0,0,.59.5,1,1,0,0,0,.3,0c.86,0,1.36-1.05,1.66-1.84a2.76,2.76,0,0,0,.23-2.09A1,1,0,0,0,238.9,34.24Z"/><path class="cls-1" d="M278.37,62q.11-5.39.11-6.88c-.07-5.78-.8-10.06-2.19-12.73a5.25,5.25,0,0,0-3.93-2.88A7.13,7.13,0,0,0,268,40.78a8.55,8.55,0,0,0-2.34,2.69l0-1.3a1.34,1.34,0,0,0-2.67,0c0,1.36.05,2.89.17,4.57a7.07,7.07,0,0,0-.06.91,1.2,1.2,0,0,0,.23.69c0,.58.15,1.62.32,3.12.46,4.38.74,7.43.81,9.06,0,.48,0,1.29,0,2.33a26.84,26.84,0,0,0,0,3.11,14.86,14.86,0,0,0,.38,2.74,1.26,1.26,0,0,0,.66.73,1.38,1.38,0,0,0,.64.16,1.39,1.39,0,0,0,.32,0,1.2,1.2,0,0,0,.82-.58,1.31,1.31,0,0,0,.16-1,7.85,7.85,0,0,1-.33-2.16c0-.83,0-1.77,0-2.8s0-1.93,0-2.66c-.07-1.72-.36-4.73-.87-9.17a6.73,6.73,0,0,0-.24-1.44,1.87,1.87,0,0,1-.09-.58,17.18,17.18,0,0,1,1.32-3.61,8.3,8.3,0,0,1,2.07-2.85A3.91,3.91,0,0,1,272,42a2.51,2.51,0,0,1,1.85,1.57c1.26,2.29,1.91,6.17,2,11.55q0,1.43-.11,6.8a59.4,59.4,0,0,0,0,6.08,1.12,1.12,0,0,0,.49.92,1.38,1.38,0,0,0,1.83-.13,1.34,1.34,0,0,0,.34-.93A57.34,57.34,0,0,1,278.37,62Z"/><path class="cls-1" d="M108.77,59.92a59.2,59.2,0,0,1-3.64-5.36l-1-1.66a52.19,52.19,0,0,1,4.28-10.4.76.76,0,0,0-.12-1,1.46,1.46,0,0,0-.8-.41,2,2,0,0,0-.93,0,1.27,1.27,0,0,0-.75.55,51.74,51.74,0,0,0-3.6,8.05l-.45-.71q-.12-.22-.87-1.37c-.48-.76-.8-1.28-1-1.55l-.75-1.32a11,11,0,0,1-.78-1.49A10.24,10.24,0,0,1,98,42a1.06,1.06,0,0,0-.65-.67,1.81,1.81,0,0,0-.94-.15,1.75,1.75,0,0,0-.85.29.84.84,0,0,0-.4.94,10.78,10.78,0,0,0,.52,1.51c.22.53.5,1.09.83,1.71l.78,1.32c.17.31.51.85,1,1.64l.09.13c.46.69.73,1.09.79,1.17l2,3.23c-.43,1.46-.83,3-1.17,4.54l-1.35,5.59-1,4.68a.83.83,0,0,0,.38,1,1.73,1.73,0,0,0,.87.3,1.76,1.76,0,0,0,.93-.15,1.1,1.1,0,0,0,.65-.7l1.29-5.79c.57-2.48,1.06-4.52,1.46-6.08,1.1,1.76,2.13,3.27,3.07,4.5a77.78,77.78,0,0,1,5.53,8,1.26,1.26,0,0,0,.74.54,1.9,1.9,0,0,0,.57.09,2,2,0,0,0,.39,0,1.61,1.61,0,0,0,.78-.41.76.76,0,0,0,.13-1A69.67,69.67,0,0,0,108.77,59.92Z"/><path class="cls-1" d="M127.46,66.09a18.57,18.57,0,0,1-.12-2.28c0-.89,0-1.6-.07-2.15s-.33-3.06-.87-7.91c-.18-1.44-.32-2.75-.41-3.9a1.16,1.16,0,0,0,.59-1.19c-.49-3.45-1.43-5.56-2.87-6.44a3.29,3.29,0,0,0-2.94-.24,6,6,0,0,0-2.19,1.45,16,16,0,0,0-3.17,4.67,18.87,18.87,0,0,0-1.74,5.16,26,26,0,0,0,.4,10.14,12.18,12.18,0,0,0,1.83,3.76,5.57,5.57,0,0,0,2.9,2.16,4.22,4.22,0,0,0,3.88-.71,6.61,6.61,0,0,0,1.92-2.2,11,11,0,0,0,.47,2.12,1.09,1.09,0,0,0,.71.81,1.71,1.71,0,0,0,1,.11,1.33,1.33,0,0,0,.9-.55,1,1,0,0,0,.14-1A12,12,0,0,1,127.46,66.09Zm-6.64.59a1.27,1.27,0,0,1-1.05.27,3.28,3.28,0,0,1-1.51-1.27,8.46,8.46,0,0,1-1.32-2.88,22.34,22.34,0,0,1-.36-9.21,14.79,14.79,0,0,1,1.51-4.48A15.66,15.66,0,0,1,120.81,45a3,3,0,0,1,1-.75l.15,0H122c.19.12.58.52,1,1.77a53.56,53.56,0,0,0,.44,8c0,.5.13,1.22.25,2.15.1.73.17,1.26.22,1.58a.65.65,0,0,0-.1.32c0,.36-.1.87-.19,1.51l-.24,1.6c-.08.39-.19.85-.33,1.38s-.3,1-.45,1.39A6.79,6.79,0,0,1,120.83,66.67Z"/><path class="cls-1" d="M155.08,42.4q-1.31,0-3.17.05l-1.69,0c-1.7,0-3,0-4,0a1.26,1.26,0,1,0,0,2.51c.87,0,2,0,3.37,0-.15,2.86-.16,6.4,0,10.54.23,7.09.39,12,.39,12.82a1.34,1.34,0,0,0,2.67,0c0-.85-.14-5.38-.38-12.9-.14-4.14-.13-7.68,0-10.53,1.13,0,2.08,0,2.84,0a1.26,1.26,0,1,0,0-2.51Z"/><path class="cls-1" d="M162.64,41.88a1.15,1.15,0,0,0-.28-1,1.44,1.44,0,0,0-.86-.47h-.2a1.31,1.31,0,0,0-.77.25,1.27,1.27,0,0,0-.54.84,26.81,26.81,0,0,0-.25,3.32q0,1.69,0,4t.06,3.17c0,1.81,0,4.54,0,8.19s0,6.4,0,8.25a1.34,1.34,0,0,0,2.67,0q0-2.77,0-8.24c0-3.66,0-6.38,0-8.2q0-.94-.06-3.25c0-1.49,0-2.8,0-3.91A22.78,22.78,0,0,1,162.64,41.88Z"/><path class="cls-1" d="M196.63,62.38c.07-3.59.11-5.88.11-6.88-.08-5.79-.81-10.06-2.19-12.73a5.29,5.29,0,0,0-3.94-2.88,7.19,7.19,0,0,0-4.3,1.3,8.52,8.52,0,0,0-2.35,2.7l0-1.3a1.34,1.34,0,0,0-2.67,0c0,1.4.06,3,.16,4.58a7.45,7.45,0,0,0-.05.9,1.19,1.19,0,0,0,.23.69c0,.57.15,1.62.32,3.12.48,4.53.75,7.49.81,9.07a19.59,19.59,0,0,1,0,2.32,26,26,0,0,0,0,3.12,15.48,15.48,0,0,0,.38,2.74,1.27,1.27,0,0,0,.66.72,1.4,1.4,0,0,0,.64.16,1.62,1.62,0,0,0,.34,0,1.25,1.25,0,0,0,.81-.58,1.33,1.33,0,0,0,.16-1,7.68,7.68,0,0,1-.33-2.15c0-.83,0-1.77,0-2.81s0-1.93,0-2.66c-.07-1.72-.37-4.81-.87-9.17a6.23,6.23,0,0,0-.24-1.43,2,2,0,0,1-.09-.58A17.61,17.61,0,0,1,185.58,46a8.25,8.25,0,0,1,2.06-2.86,4,4,0,0,1,2.62-.73A2.49,2.49,0,0,1,192.11,44c1.25,2.27,1.91,6.16,2,11.54q0,1.43-.11,6.81a59.17,59.17,0,0,0,.06,6.08,1.09,1.09,0,0,0,.49.91,1.32,1.32,0,0,0,2.18-1.06A55.54,55.54,0,0,1,196.63,62.38Z"/><path class="cls-1" d="M142.67,48.58c0-.54,0-1-.09-1.31l-.11-1.17a9.84,9.84,0,0,0-.31-1.38,10.22,10.22,0,0,0-.44-1.19,5.57,5.57,0,0,0-2-2.2,4.6,4.6,0,0,0-2.53-.75h-.18a5,5,0,0,0-2.69.77,5.33,5.33,0,0,0-1.94,2.09,4,4,0,0,0-.47,1.08,6.41,6.41,0,0,0-.21,1.14c0,.38-.07.7-.09,1s0,.61,0,1.06,0,.69,0,.86c0,.77-.07,1.53-.08,2.32q0,2.31,0,5.54t.06,4.36q0,3.72,0,11.24t0,11.32c0,1,.5,1.53,1.33,1.53s1.34-.58,1.34-1.53q0-3.8,0-11.31l0-4.06a6.22,6.22,0,0,0,1.38,1.18,4,4,0,0,0,2.75.67,3.07,3.07,0,0,0,2.47-2c1.66-3.74,2.24-9.86,1.74-18.18C142.7,49.47,142.69,49.12,142.67,48.58ZM137.22,67a3.68,3.68,0,0,1-1.15-1.08,2,2,0,0,1-.46-1.08,1.19,1.19,0,0,0-1.24-1.26q0-1.61,0-2.82c0-.86,0-2.35-.05-4.45s0-3.87,0-5.38.1-2.87.24-4.2a1.58,1.58,0,0,0-.14-.9,3.05,3.05,0,0,1,.11-.62,3,3,0,0,1,2.65-2.12,2.24,2.24,0,0,1,2.11,1.49,4.75,4.75,0,0,1,.32.84,8.18,8.18,0,0,1,.2,1l.13,1,0,1.21c0,.5.06.87.06,1.12.46,8-.05,13.7-1.54,17-.13.3-.29.49-.48.52A1.59,1.59,0,0,1,137.22,67Z"/><path class="cls-1" d="M119.74,41.2a1,1,0,0,0,.3,0c.86,0,1.36-1.05,1.66-1.85a2.74,2.74,0,0,0,.23-2.09,1,1,0,0,0-.89-.55c-.86,0-1.36,1.06-1.66,1.84a2.79,2.79,0,0,0-.24,2.09A1,1,0,0,0,119.74,41.2Z"/><path class="cls-1" d="M177.16,42a1.36,1.36,0,0,0-1,.09,1.31,1.31,0,0,0-.67.73,26.76,26.76,0,0,0-.79,3.09c-.2,1.06-.42,2.33-.64,3.81s-.38,2.46-.47,3q-.44,2.55-1.37,7.69L172,61.82l-.26-1.28q-.91-4.41-1.43-6.91l-.16-.76c-.12-.59-.36-1.6-.69-3s-.6-2.63-.8-3.64a21.55,21.55,0,0,1-.35-2.86,1.12,1.12,0,0,0-.48-.88,1.44,1.44,0,0,0-.91-.3h0a1.32,1.32,0,0,0-.92.39,1.18,1.18,0,0,0-.37.91,24.93,24.93,0,0,0,.41,3.15q.3,1.59.82,3.78c.34,1.45.57,2.43.68,3,.33,1.55.79,3.81,1.41,6.79l.18.87q1.06,5.13,1.6,7.72a1.17,1.17,0,0,0,1.23,1l.31,0a1.33,1.33,0,0,0,.67-.27,1.17,1.17,0,0,0,.59-.87c.3-1.73.77-4.31,1.38-7.74s1.08-6,1.38-7.69c.11-.59.26-1.61.49-3.06s.41-2.66.61-3.67a22.53,22.53,0,0,1,.73-2.8,1.09,1.09,0,0,0-.13-1A1.38,1.38,0,0,0,177.16,42Z"/><path class="cls-1" d="M290.53,45.92a5,5,0,0,1-1.14,1.71,5.16,5.16,0,0,1-1.72,1.15,6.08,6.08,0,0,1-4.38,0,5.3,5.3,0,0,1-1.72-1.15,5.12,5.12,0,0,1-1.13-1.71,5.56,5.56,0,0,1-.39-2.1,5.72,5.72,0,0,1,.39-2.12A5.16,5.16,0,0,1,281.57,40a5.31,5.31,0,0,1,1.72-1.14,6,6,0,0,1,4.38,0A5.17,5.17,0,0,1,289.39,40a5.08,5.08,0,0,1,1.14,1.72,5.7,5.7,0,0,1,.4,2.12A5.55,5.55,0,0,1,290.53,45.92Zm-1.24-3.83a4.07,4.07,0,0,0-.83-1.38,3.8,3.8,0,0,0-1.29-.9,4.3,4.3,0,0,0-1.68-.32,4.24,4.24,0,0,0-1.65.32,4,4,0,0,0-1.32.9,4.09,4.09,0,0,0-.84,1.38,4.81,4.81,0,0,0-.3,1.72,4.71,4.71,0,0,0,.3,1.71,4.19,4.19,0,0,0,.83,1.36,3.62,3.62,0,0,0,1.3.89,4.46,4.46,0,0,0,3.36,0,3.63,3.63,0,0,0,1.29-.89,4.12,4.12,0,0,0,.83-1.36,4.76,4.76,0,0,0,.3-1.71A4.86,4.86,0,0,0,289.29,42.09Zm-2.74,4.86-1.1-2.31h-.65v2.31h-1.31V40.62h2.14a2.6,2.6,0,0,1,1.58.47,1.71,1.71,0,0,1,.63,1.46,1.75,1.75,0,0,1-1,1.75L288,46.95Zm-.34-5.07a1,1,0,0,0-.76-.27h-.65v2h.65a1,1,0,0,0,.78-.29,1.11,1.11,0,0,0,.24-.75A1,1,0,0,0,286.21,41.87Z"/><path class="cls-1" d="M86,55.63c-.09-1.16-.08-3.45,0-6.79a55.25,55.25,0,0,0-.08-6.68.83.83,0,0,0,.17-.52c0-1.11-1.35-1.92-1.93-2.2a5.43,5.43,0,0,0-2.76-.35l-1.29.08c-.79,0-2.58.09-3.32.18a1.47,1.47,0,0,0-.93.41,3.89,3.89,0,0,0-.32,2,1.14,1.14,0,0,0,.66.84,1.56,1.56,0,0,0,.71.16h1.23c1.16-.13,2.48-.22,3.93-.25a54.5,54.5,0,0,1,.06,6.21c-.11,3.47-.11,5.77,0,7,.06.84.29,2.77.65,5.59.19,1.53.33,1.84.4,3-.37.53-.35.74-.67.76-1.33.1-2.66.17-3.95.18s-3,0-4.92,0-3.26,0-4,0c-1.08-.06-1.53-.33-1.6-1.5,0-.08.3-9.46,0-10S65.69,53,64.86,53l-.37,0-.66-.06a6.45,6.45,0,0,0-2.29.55,1.33,1.33,0,0,0-1,1.91,1.21,1.21,0,0,0,.85.85c.18.1.72,0,1.13,0,.61-.07,1.31-.12,2.11-.15a34.82,34.82,0,0,1,0,3.5c-.07,2.14-.07,3.56,0,4.36,0,.41.13,1.28.29,2.6,0,.17.29,2.42.33,3l-.36,0c-.77.06-1.57.1-2.39.12h-.81c-.66,0-1.39,0-2.2,0-1.17,0-2,0-2.47,0a4.69,4.69,0,0,1-.72-.15h0q-.06-1.41-.23-4.66c-.14-2.44-.18-4.32-.11-5.75,0-.58.1-1.59.26-3s.18-2.45.18-3.21A1.05,1.05,0,0,0,56,52a3.07,3.07,0,0,0-2.55,0,1.06,1.06,0,0,0-.38.8c0,.74-.06,1.76-.17,3-.09.82-.15,1.51-.19,2.07-.68,0-.35.08-1.06.1H50.58l-2.53,0c-1.39,0-2.38,0-2.94,0a8.77,8.77,0,0,0-.88-.08c-.05,0-.12-.14-.17-.15q-.07-1.8-.29-6.2c-.16-3.07-.21-5.58-.14-7.46,0-.75.13-2.08.31-4,.14-1.72.21-3.1.21-4.11a1.11,1.11,0,0,0-.39-.86,3,3,0,0,0-2.7,0,1.16,1.16,0,0,0-.4.87c0,.95-.07,2.27-.21,3.91-.18,1.84-.29,3.26-.32,4.11-.07,1.78,0,4.34.18,7.62s.27,5.74.28,7.07l-.08.56a3.24,3.24,0,0,0,.22,1.54,1.15,1.15,0,0,0,.69.49l.09,0a11.62,11.62,0,0,0,1.43.08h-.73c.27,0,1.56.06,1.71.06.94,0,1.09.08,1.25.08.55,0,1.45.12,2.86.15l2.39,0h1.28c.65,0,.27,0,.89-.08,0,1.15.06,1.55.17,3.3.14,2.52.22,4.34.23,5.4l-.05.19a4.81,4.81,0,0,0,.22,1.87,5.38,5.38,0,0,0,1.67.4,1,1,0,0,0,.42.09h.18l.08,0c.21,0,.43,0,.54,0a5.63,5.63,0,0,0,1,.15l2.45,0c.75,0,1.44,0,2.06,0h1c.87,0,1.7-.06,2.52-.12l.33,0c.33,0,2.62,0,3.07-1a6.39,6.39,0,0,0,0-2.57,32.08,32.08,0,0,0,4.74.32c1.94,0,3.6,0,5,0s2.76-.09,4.08-.19c.69-.06,3.2-.11,3.78-.49.7-.16,1-1.71,1-2.18a49.89,49.89,0,0,0-.47-5.68C86.24,58.2,86,56.36,86,55.63Z"/><path class="cls-1" d="M48.9,52.8c.39.71.77.86,1,.86h0a1.1,1.1,0,0,0,.64-.23l1-.81a41.49,41.49,0,0,1,4-2.91L56.72,49c1-.63,1.88-1.21,2.45-1.5s.82-.37,1.06-.47l.26,0c.64.4,1.46,1,2.48,1.79l1.32,1c.79.57,1.48,1.11,2.1,1.58a24.65,24.65,0,0,0,2.46,1.75,2.11,2.11,0,0,0,.69.29l.49,0a1.78,1.78,0,0,0,1-.81,1.92,1.92,0,0,0,0-2,8.68,8.68,0,0,0-1-1,12.44,12.44,0,0,1-2.51-1.95c0-.22,0-.33,0-.41a1.65,1.65,0,0,1,0-.32l0,.16c0-.93.17-2.61.42-5,.19-2.24.29-3.93.29-5.19a1.22,1.22,0,0,0-.46-.95,3.27,3.27,0,0,0-2.94,0,1.25,1.25,0,0,0-.47,1c0,1.19-.09,2.82-.28,5-.19,1.86-.27,2.63-.31,3.82A24.36,24.36,0,0,0,61.49,44a2.21,2.21,0,0,0-2.06-.18c-.28.13-.71.35-1,.51-.59.29-1.3.69-2.13,1.19,0-.61,0-.41.07-1.64a48.13,48.13,0,0,0-.06-5.27.84.84,0,0,0,.12-.44c0-.42-.27-1.83-.76-2.08a3.77,3.77,0,0,0-2.14-.3l-1,.07c-.57,0-1.13.07-1.65.13a2.71,2.71,0,0,0-1.22.45,2,2,0,0,0-.89,1.89,1.11,1.11,0,0,0,.6.78,1.35,1.35,0,0,0,.59.14h.19c.77-.1,1.64-.16,2.67-.19.08,1.19.09,2.79,0,4.77s0,2.68.08,3.73a41.82,41.82,0,0,0-3.6,2.67A2.11,2.11,0,0,0,48.9,52.8Z"/><path class="cls-1" d="M90.63,34.21a83.29,83.29,0,0,1-7.36-5l-1.13-.82A58.29,58.29,0,0,0,77,24.88a3.14,3.14,0,0,0-2.92-.28c-.46.2-1.16.57-1.68.84a59.72,59.72,0,0,0-5.52,3.23c-2.36,1.52-4.33,2.83-6,4a64.84,64.84,0,0,1-5.35-3.93l-.73-.57a45.5,45.5,0,0,0-3.89-2.88,2.39,2.39,0,0,0-2.37-.22c-.34.16-.86.45-1.21.66a43.15,43.15,0,0,0-4.07,2.56c-2.89,2-5.17,3.7-6.75,5-.3.23-1.73,1.49-1.52,2.53.15.74.35,1.22.94,1.45a2.05,2.05,0,0,0,1.84-.41c.42-.35.84-.7,1.28-1.08A49.11,49.11,0,0,1,43.82,32l1.36-.95c1.17-.81,2.27-1.58,3-2a13.84,13.84,0,0,1,1.29-.61l.34-.06h0c.77.52,1.75,1.32,3,2.31l1.61,1.31c1,.75,1.8,1.45,2.55,2.07.57.48,1.1.91,1.58,1.29l-.82.62a1.7,1.7,0,0,0-.58,2.08c.29.95.87,1.08,1.18,1.08a1.26,1.26,0,0,0,.76-.28c.56-.43,1.11-.87,1.68-1.33a68.82,68.82,0,0,1,6.59-4.79l2-1.28c1.53-1,3-1.92,3.91-2.39s1.37-.62,1.82-.79a4.68,4.68,0,0,1,.53-.09h.1c1.09.66,2.49,1.72,4.24,3L82,32.9c1.29.94,2.43,1.81,3.44,2.58a39.93,39.93,0,0,0,3.95,2.82,2,2,0,0,0,.74.31,1.82,1.82,0,0,0,1.22-.24c.61-.38.52-.5.77-1.19C92.68,35.55,91,34.44,90.63,34.21Z"/></svg>